<svg xmlns="http://www.w3.org/2000/svg" viewBox="0 0 512 1028">
  <!-- Top bar -->
  <rect x="0" y="0" width="512" height="40" fill="red"/>
  <text x="20" y="25" font-size="20" fill="black">♥♥♥   9C199   Lv.4</text>

  <!-- Inventory -->
  <rect x="50" y="60" width="412" height="250" rx="20" ry="20" fill="none" stroke="black" stroke-width="3"/>
  <text x="190" y="190" font-size="28" fill="black">Inventory here</text>

  <!-- Target -->
  <line x1="0" y1="340" x2="512" y2="340" stroke="black" stroke-width="3"/>
  <text x="70" y="375" font-size="28" fill="black">Target:   Target here</text>
  <line x1="0" y1="400" x2="512" y2="400" stroke="black" stroke-width="3"/>

  <!-- Buttons (Double Ops) -->
  <g font-size="22" text-anchor="middle">
    <rect x="60" y="430" width="90" height="90" rx="15" ry="15" fill="none" stroke="black" stroke-width="3"/>
    <text x="105" y="485">MP</text>

    <rect x="160" y="430" width="90" height="90" rx="15" ry="15" fill="none" stroke="black" stroke-width="3"/>
    <text x="205" y="485">MT</text>

    <rect x="260" y="430" width="90" height="90" rx="15" ry="15" fill="none" stroke="black" stroke-width="3"/>
    <text x="305" y="485">HS</text>

    <rect x="360" y="430" width="90" height="90" rx="15" ry="15" fill="none" stroke="black" stroke-width="3"/>
    <text x="405" y="485">DS</text>

    <rect x="60" y="530" width="90" height="90" rx="15" ry="15" fill="none" stroke="black" stroke-width="3"/>
    <text x="105" y="585">CD</text>

    <rect x="160" y="530" width="90" height="90" rx="15" ry="15" fill="none" stroke="black" stroke-width="3"/>
    <text x="205" y="585">DN</text>

    <rect x="260" y="530" width="90" height="90" rx="15" ry="15" fill="none" stroke="black" stroke-width="3"/>
    <text x="305" y="585">IMP</text>

    <rect x="360" y="530" width="90" height="90" rx="15" ry="15" fill="none" stroke="black" stroke-width="3"/>
    <text x="405" y="585">CONV</text>
  </g>

  <!-- Footer -->
  <text x="70" y="990" font-size="24" fill="black">Double Operations</text>
  <rect x="420" y="940" width="60" height="60" rx="10" ry="10" fill="none" stroke="black" stroke-width="3"/>
  <polygon points="440,970 460,955 460,985" fill="black"/>
</svg>